<svg width="32" height="32" viewBox="0 0 32 32" fill="none" xmlns="http://www.w3.org/2000/svg">
    <path d="M16.4678 31.8397C7.905 31.7866 0.92059 25.0101 0.929696 16.2181C0.93151 14.1448 1.34882 12.0928 2.15698 10.1834C2.96515 8.27409 4.14776 6.54604 5.63498 5.10141C7.1222 3.65677 8.88385 2.52486 10.8159 1.77249C12.7479 1.02013 14.8111 0.662597 16.8837 0.721002C24.976 0.924372 32.1061 7.49291 31.9983 16.4427C31.8936 25.0602 25.0625 31.7654 16.4678 31.8397ZM5.71496 16.6097C4.57518 14.6367 3.40807 13.8642 1.86762 14.0752C0.198159 23.6973 8.68054 31.9945 17.5454 30.9974L16.7865 29.7924L17.1781 29.6755C17.6683 28.7649 17.0582 27.9818 16.8745 27.1227C17.7184 26.4292 18.3088 25.6415 17.7609 24.4288C17.6683 24.5687 17.5669 24.7025 17.4574 24.8295C17.3404 24.9343 17.2161 25.0307 17.0855 25.1179C17.8717 22.6152 16.8791 20.7332 14.3537 20.0108C15.8061 18.0758 17.3238 16.2166 18.7064 14.2436L18.5804 14.1146L11.7979 19.3916C11.6704 17.3944 10.5549 16.5384 8.80196 16.3168H10.4395C10.6717 16.1498 10.5154 15.9206 10.4395 15.6824C10.1755 14.8188 9.5957 14.2163 8.84596 13.761C7.70769 13.0689 5.56471 13.3831 5.11244 14.3757C5.99877 15.8812 6.00334 15.8933 5.97906 16.5596L5.71496 16.6097ZM19.9236 13.1312C19.9433 13.5576 20.3015 13.7048 20.7507 13.7929C20.8039 14.2148 20.857 14.6276 20.9025 15.0449C22.2183 14.406 22.7237 13.5045 22.3883 12.3662C22.8163 11.9428 23.2989 11.5315 23.7026 11.0565C24.3993 10.243 24.9168 9.34755 24.7407 8.22445C24.6194 8.12678 24.4768 8.05898 24.3244 8.02655C24.172 7.99413 24.0141 7.99798 23.8635 8.03778C23.0461 8.19066 22.2909 8.57826 21.6902 9.15326C21.2227 9.59643 20.7614 10.0457 20.2985 10.4904C19.573 9.89239 18.6002 10.4281 17.7669 11.8563L19.1329 12.0763L19.0115 12.4528L19.9236 13.1312Z" fill="#04FEEF"/>
</svg>
    