<svg width="33" height="25" fill="none" xmlns="http://www.w3.org/2000/svg">
    <path d="M32.9487 15.7856v5.0453c-2.3284 1.8775-4.9612 3.1816-7.8021 4.0959-.2035.0642-.5859.0336-.6777-.0994-.5492-.7767-1.0373-1.5962-1.5681-2.4371l2.5426-1.3194c-.332-.7201-.742-.5091-1.1474-.3394-1.9968.8487-4.1225 1.3547-6.2876 1.4968-2.9882.179-5.9773-.3348-8.73387-1.5014-.42988-.1789-.86589-.3822-1.15197.3578.67313.3302 1.31872.6742 1.98884.9662.4314.1896.5277.422.2799.821-.335.5397-.67006 1.0825-.98214 1.6359-.27384.4831-.61194.5657-1.14585.3868-2.46694-.8269-4.79886-2.0117-6.92098-3.5164-.2616-.1865-.458948-.4586-.679244-.7002v-5.1982c.078756-.2357.142121-.4762.189698-.7201C1.38364 10.7342 2.80027 7.03582 4.91144 3.57902c.44824-.73386.98521-1.27048 1.81286-1.51816 1.51147-.45102 3.01989-.9051 4.5222-1.375993.7389-.235447 1.2346-.058116 1.4671.707853.2081.68799.667.7889 1.3493.76444 1.8022-.07186 3.6089-.08256 5.4095 0 .7389.03058 1.2346-.04891 1.4457-.82405.1958-.717044.6808-.869938 1.3524-.655895 1.6476.522875 3.3151.989195 4.9398 1.576285.5084.21297.9412.57355 1.2423 1.03505 1.8922 2.81856 3.2201 5.97678 3.9102 9.30015.2234 1.0503.3947 2.1267.5859 3.1969Zm-7.7715-1.7705c-.1025-1.7077-1.2361-3.0715-2.7537-3.235-1.357-.1529-2.7216.8485-2.9832 2.385-.1226.7948-.0453 1.6076.2249 2.3652.3977 1.1007 1.3156 1.7505 2.5303 1.7505 1.178 0 2.0286-.6283 2.5151-1.6817.2249-.4923.3136-1.0534.4666-1.584Zm-10.8481.026c.0184-2.2933-1.949-3.8482-3.8827-3.0577-1.15045.4678-1.93067 1.7643-1.89395 3.1479.03671 1.3837.88118 2.6129 2.08055 3.018 1.8649.6254 3.6793-.8989 3.6961-3.1082Z" fill="#04FEEF"/>
</svg>