<svg width="31" height="26" fill="#04FEEF" xmlns="http://www.w3.org/2000/svg">
    <path d="M9.31782 20.242c-2.92248-.2375-4.86434-1.7003-5.93411-4.4231.969.1674 1.87636.1531 2.78256-.1046-1.43992-.3715-2.65232-1.0944-3.5841-2.2589-.93178-1.1646-1.39535-2.4985-1.39961-3.99309.47054.17589.91395.36185 1.37054.50674.47337.15195.96836.22575 1.4655.21845-1.69419-1.22804-2.62868-2.83734-2.77286-4.86892-.08954-1.26102.19379-2.45308.84185-3.56417C5.52557 5.79354 9.86665 8.01224 15.1155 8.37409c-.031-.60785-.1-1.18471-.0818-1.75885.0457-1.44737.5694-2.72543 1.5143-3.81793C17.6535 1.51886 19.0554.778519 20.743.620068c1.9767-.185956 3.6775.436222 5.1035 1.810752.1163.11158.2155.14218.3732.10809 1.2797-.27769 2.5097-.74794 3.6481-1.39467.0329-.0186.0667-.03526.1512-.07943-.2235.7167-.5794 1.38517-1.0493 1.97076-.4635.57775-1.0148 1.07932-1.6337 1.48649 1.212-.12862 2.3667-.45753 3.5147-.89607-.2325.30992-.4573.62682-.7023.92668-.6627.8156-1.427 1.54313-2.2744 2.16485-.0505.03143-.0912.07642-.1174.12985-.0262.05343-.0368.11315-.0307.17233.0652 1.96552-.1953 3.9283-.7709 5.8088-.7663 2.5147-1.9864 4.7818-3.6977 6.7832-1.5139 1.7704-3.3058 3.1864-5.3899 4.2278-1.7248.8624-3.55 1.4055-5.4604 1.669-1.091.1547-2.1932.2153-3.29461.1813-2.44186-.0841-4.78371-.6118-6.99728-1.6562C1.39457 23.6938.699612 23.3006 0 22.8977c3.43876.2898 6.53643-.5532 9.31782-2.6557Z" fill="inherit"/>
</svg>